<?xml version="1.0" encoding="UTF-8"?>
<svg width="24" height="24" viewBox="0 0 24 24" fill="none" xmlns="http://www.w3.org/2000/svg">
  <path d="M8.5 6.5C9.5 6.5 10.5 7.5 10.5 8.5C10.5 9.5 9.5 10.5 8.5 10.5C7.5 10.5 6.5 9.5 6.5 8.5C6.5 7.5 7.5 6.5 8.5 6.5ZM8.5 8.5C8.5 8.5 8.5 8.5 8.5 8.5ZM15.5 6.5C16.5 6.5 17.5 7.5 17.5 8.5C17.5 9.5 16.5 10.5 15.5 10.5C14.5 10.5 13.5 9.5 13.5 8.5C13.5 7.5 14.5 6.5 15.5 6.5ZM15.5 8.5C15.5 8.5 15.5 8.5 15.5 8.5ZM8.5 13.5C9.5 13.5 10.5 14.5 10.5 15.5C10.5 16.5 9.5 17.5 8.5 17.5C7.5 17.5 6.5 16.5 6.5 15.5C6.5 14.5 7.5 13.5 8.5 13.5ZM8.5 15.5C8.5 15.5 8.5 15.5 8.5 15.5ZM15.5 13.5C16.5 13.5 17.5 14.5 17.5 15.5C17.5 16.5 16.5 17.5 15.5 17.5C14.5 17.5 13.5 16.5 13.5 15.5C13.5 14.5 14.5 13.5 15.5 13.5ZM15.5 15.5C15.5 15.5 15.5 15.5 15.5 15.5ZM12 12L8.5 8.5L12 5L15.5 8.5L12 12Z" fill="currentColor"/>
</svg> 